<svg version="1.0" xmlns="http://www.w3.org/2000/svg"
     width="296.000000pt" height="171.000000pt" viewBox="0 0 296.000000 171.000000"
     preserveAspectRatio="xMidYMid meet">
    <metadata>
        Created by potrace 1.16, written by Peter Selinger 2001-2019
    </metadata>
    <g transform="translate(0.000000,171.000000) scale(0.100000,-0.100000)"
       fill="#000000" stroke="none">
        <path d="M1595 1544 c-11 -3 -189 -36 -395 -75 -206 -39 -393 -75 -415 -81
-59 -15 -120 -80 -133 -143 -15 -68 2 -137 45 -187 13 -15 12 -20 -10 -50 -30
-41 -47 -90 -47 -137 0 -41 29 -109 53 -130 10 -7 17 -19 17 -26 0 -7 -7 -19
-17 -26 -26 -22 -53 -90 -53 -138 0 -57 32 -124 76 -157 42 -32 571 -204 629
-204 29 0 917 195 932 205 9 5 -21 77 -35 84 -13 7 -137 -18 -427 -85 -226
-51 -432 -94 -460 -94 -55 0 -547 150 -577 177 -69 61 -27 173 65 173 19 0
126 -29 238 -65 112 -36 224 -68 249 -71 34 -3 152 20 495 99 l450 104 -3 29
c-2 16 -12 38 -22 48 -19 20 -21 19 -157 -12 -590 -136 -710 -162 -743 -162
-33 0 -518 148 -563 172 -32 17 -50 74 -36 115 11 34 58 73 89 73 8 0 114 -32
235 -70 121 -39 238 -73 260 -75 29 -4 167 24 487 98 246 57 451 106 454 110
3 3 3 20 -1 37 -13 61 -15 60 -471 -44 -231 -53 -434 -96 -451 -96 -18 0 -151
38 -295 85 -210 67 -268 89 -285 110 -52 60 -5 165 74 165 10 0 99 -28 198
-62 176 -60 182 -61 285 -61 86 0 134 7 265 37 88 21 285 64 438 96 153 31
280 60 283 62 5 6 -11 86 -19 94 -2 2 -130 22 -283 44 -254 36 -364 45 -419
34z"/>
    </g>
</svg>
